<?xml version="1.0" encoding="UTF-8" standalone="no"?><!DOCTYPE svg PUBLIC "-//W3C//DTD SVG 1.1//EN" "http://www.w3.org/Graphics/SVG/1.1/DTD/svg11.dtd"><svg width="100%" height="100%" viewBox="0 0 512 512" version="1.1" xmlns="http://www.w3.org/2000/svg" xmlns:xlink="http://www.w3.org/1999/xlink" xml:space="preserve" xmlns:serif="http://www.serif.com/" style="fill-rule:evenodd;clip-rule:evenodd;stroke-linecap:round;stroke-linejoin:round;stroke-miterlimit:1.5;"><path d="M482.844,155.325c0,-5.233 -4.248,-9.481 -9.48,-9.481l-148.526,0c-5.232,0 -9.48,4.248 -9.48,9.481l-0,18.96c-0,5.232 4.248,9.48 9.48,9.48l148.526,-0c5.232,-0 9.48,-4.248 9.48,-9.48l0,-18.96Z" style="fill:#c9c9c9;fill-opacity:0.27;stroke:#9d9d9d;stroke-width:2.5px;"/><path d="M253.064,280.262c0,-10.327 -8.384,-18.712 -18.711,-18.712l-212.661,0c-10.328,0 -18.712,8.385 -18.712,18.712l0,96.385c0,10.328 8.384,18.712 18.712,18.712l212.661,-0c10.327,-0 18.711,-8.384 18.711,-18.712l0,-96.385Z" style="fill:#c9c9c9;fill-opacity:0.27;stroke:#9d9d9d;stroke-width:2.5px;"/><path d="M510,283.11c0,-12.525 -10.168,-22.693 -22.693,-22.693l-200.736,-0c-12.525,-0 -22.693,10.168 -22.693,22.693l-0,109.02c-0,12.524 10.168,22.693 22.693,22.693l200.736,-0c12.525,-0 22.693,-10.169 22.693,-22.693l0,-109.02Z" style="fill:#c9c9c9;fill-opacity:0.27;stroke:#9d9d9d;stroke-width:2.5px;"/><path d="M289.17,56.635c0,-17.608 -14.295,-31.903 -31.903,-31.903l-199.29,-0c-17.608,-0 -31.903,14.295 -31.903,31.903l0,63.806c0,17.608 14.295,31.903 31.903,31.903l199.29,0c17.608,0 31.903,-14.295 31.903,-31.903l0,-63.806Z" style="fill:#c9c9c9;fill-opacity:0.27;stroke:#9d9d9d;stroke-width:2.5px;"/><path d="M142.854,47.17c0,-5.02 -4.075,-9.095 -9.095,-9.095l-50.279,-0c-5.02,-0 -9.095,4.075 -9.095,9.095c-0,5.02 4.075,9.095 9.095,9.095l50.279,0c5.02,0 9.095,-4.075 9.095,-9.095Z" style="fill:#2e9900;fill-opacity:0.5;"/><path d="M142.854,86.806c0,-5.02 -4.075,-9.095 -9.095,-9.095l-84.514,-0c-5.019,-0 -9.095,4.075 -9.095,9.095c0,5.02 4.076,9.095 9.095,9.095l84.514,0c5.02,0 9.095,-4.075 9.095,-9.095Z" style="fill:#2e9900;fill-opacity:0.5;"/><path d="M268.347,83.899c0,-5.02 -4.075,-9.096 -9.095,-9.096l-84.514,0c-5.019,0 -9.095,4.076 -9.095,9.096c0,5.019 4.076,9.095 9.095,9.095l84.514,-0c5.02,-0 9.095,-4.076 9.095,-9.095Z" style="fill:#949494;fill-opacity:0.5;"/><path d="M208.44,124.531c-0,-5.02 -4.076,-9.095 -9.095,-9.095l-127.311,-0c-5.02,-0 -9.095,4.075 -9.095,9.095c0,5.02 4.075,9.095 9.095,9.095l127.311,0c5.019,0 9.095,-4.075 9.095,-9.095Z" style="fill:#2e9900;fill-opacity:0.5;"/><text x="90.701px" y="49.659px" style="font-family:'ArialMT', 'Arial', sans-serif;font-size:7.992px;">Save Cart</text><text x="49.963px" y="88.874px" style="font-family:'ArialMT', 'Arial', sans-serif;font-size:7.992px;">Generate a Payment ID</text><text x="77.173px" y="127.889px" style="font-family:'ArialMT', 'Arial', sans-serif;font-size:7.992px;">Generate an integrated address</text><text x="178.811px" y="86.712px" style="font-family:'ArialMT', 'Arial', sans-serif;font-size:7.992px;">V<tspan x="183.7px 188.145px " y="86.712px 86.712px ">en</tspan>dors W<tspan x="217.605px 222.05px " y="86.712px 86.712px ">al</tspan>let <tspan x="234.046px 239.376px " y="86.712px 86.712px ">Ad</tspan>dress</text><path d="M99.676,74.466l-7.732,3.245l2.043,-8.133c0.2,2.644 3.045,5.088 5.689,4.888Z" style="fill:#06f;"/><path d="M111.456,58.212c-2.943,2.678 -9.05,7.698 -15.602,14.948" style="fill:none;stroke:#06f;stroke-width:2.5px;"/><path d="M187.695,111.246l-7.732,3.244l2.043,-8.132c0.201,2.644 3.045,5.088 5.689,4.888Z" style="fill:#9d9d9d;"/><path d="M199.476,94.992c-2.943,2.678 -9.05,7.698 -15.603,14.948" style="fill:none;stroke:#9d9d9d;stroke-width:2.5px;"/><path d="M287.507,222.764l-16.604,-2.354l11.845,-11.871c-2.366,4.745 0.013,11.858 4.759,14.225Z" style="fill:#9d9d9d;"/><path d="M356.44,191.795c0,-0 -50.88,17.021 -74.157,24.808" style="fill:none;stroke:#9d9d9d;stroke-width:5px;"/><path d="M356.229,125.525l7.156,15.167l-16.427,-3.375c5.266,-0.63 9.901,-6.526 9.271,-11.792Z" style="fill:#9d9d9d;"/><path d="M297.054,88.538c-0,0 38.585,30.338 56.898,44.737" style="fill:none;stroke:#9d9d9d;stroke-width:5px;"/><path d="M109.622,107.254l1.834,8.182l-7.646,-3.442c2.638,0.268 5.544,-2.102 5.812,-4.74Z" style="fill:#06f;"/><path d="M91.944,92.994c5.339,6.307 10.375,11.456 15.72,17.792" style="fill:none;stroke:#06f;stroke-width:2.5px;"/><path d="M126.885,334.236l-7.895,2.824l2.478,-8.011c0.058,2.651 2.766,5.245 5.417,5.187Z" style="fill:#9d9d9d;"/><path d="M134.5,320.862c0,0 -6.766,7.066 -11.361,11.864" style="fill:none;stroke:#9d9d9d;stroke-width:2.5px;"/><path d="M391.501,331.504l-7.896,2.823l2.479,-8.01c0.058,2.651 2.766,5.244 5.417,5.187Z" style="fill:#9d9d9d;"/><path d="M399.116,318.13c-0,-0 -6.766,7.066 -11.361,11.864" style="fill:none;stroke:#9d9d9d;stroke-width:2.5px;"/><path d="M126.763,347.876l-7.773,-3.145l7.179,-4.332c-1.72,2.018 -1.424,5.756 0.594,7.477Z" style="fill:#9d9d9d;"/><path d="M134.5,343.5c0,-0 -5.161,0.409 -9.529,0.756" style="fill:none;stroke:#9d9d9d;stroke-width:2.5px;"/><path d="M391.379,345.143l-7.774,-3.145l7.18,-4.331c-1.721,2.017 -1.424,5.755 0.594,7.476Z" style="fill:#9d9d9d;"/><path d="M399.116,340.767c-0,-0 -5.161,0.41 -9.529,0.756" style="fill:none;stroke:#9d9d9d;stroke-width:2.5px;"/><path d="M122.669,365.462l-3.679,-7.535l8.235,1.577c-2.628,0.351 -4.906,3.329 -4.556,5.958Z" style="fill:#9d9d9d;"/><path d="M134.5,369.789c0,-0 -6.186,-4.731 -10.744,-8.217" style="fill:none;stroke:#9d9d9d;stroke-width:2.5px;"/><path d="M141.67,287.816c0,-5.284 -4.29,-9.575 -9.574,-9.575l-111.649,0c-5.285,0 -9.575,4.291 -9.575,9.575c0,5.284 4.29,9.575 9.575,9.575l111.649,-0c5.284,-0 9.574,-4.291 9.574,-9.575Z" style="fill:#2e9900;fill-opacity:0.5;"/><text x="19.743px" y="289.993px" style="font-family:'ArialMT', 'Arial', sans-serif;font-size:8.413px;">Ask payer for transaction hash</text><path d="M404.621,285.083c-0,-5.284 -4.291,-9.574 -9.575,-9.574l-111.649,-0c-5.284,-0 -9.575,4.29 -9.575,9.574c0,5.285 4.291,9.575 9.575,9.575l111.649,0c5.284,0 9.575,-4.29 9.575,-9.575Z" style="fill:#2e9900;fill-opacity:0.5;"/><path d="M438.312,389.645c-0,-6.271 -5.092,-11.362 -11.363,-11.362l-108.073,0c-6.271,0 -11.363,5.091 -11.363,11.362c0,6.271 5.092,11.362 11.363,11.362l108.073,0c6.271,0 11.363,-5.091 11.363,-11.362Z" style="fill:#2e9900;fill-opacity:0.5;"/><path d="M118.99,344.731c-0,-10.248 -8.32,-18.567 -18.568,-18.567l-70.983,-0c-10.247,-0 -18.567,8.319 -18.567,18.567c0,10.248 8.32,18.567 18.567,18.567l70.983,0c10.248,0 18.568,-8.319 18.568,-18.567Z" style="fill:#2e9900;fill-opacity:0.5;"/><text x="29.092px" y="346.958px" style="font-family:'ArialMT', 'Arial', sans-serif;font-size:8.413px;">Check explorer <tspan x="87.546px 93.158px " y="346.958px 346.958px ">AP</tspan>I</text><path d="M383.605,337.176c0,-7.586 -6.158,-13.745 -13.744,-13.745l-80.629,0c-7.585,0 -13.744,6.159 -13.744,13.745c-0,7.586 6.159,13.744 13.744,13.744l80.629,0c7.586,0 13.744,-6.158 13.744,-13.744Z" style="fill:#2e9900;fill-opacity:0.5;"/><text x="293.707px" y="339.376px" style="font-family:'ArialMT', 'Arial', sans-serif;font-size:8.413px;">Check explorer <tspan x="352.162px 357.774px " y="339.376px 339.376px ">AP</tspan>I</text><path d="M242.618,317.21c-0,-5.284 -4.291,-9.574 -9.575,-9.574l-88.968,-0c-5.285,-0 -9.575,4.29 -9.575,9.574c0,5.285 4.29,9.575 9.575,9.575l88.968,0c5.284,0 9.575,-4.29 9.575,-9.575Z" style="fill:#949494;fill-opacity:0.5;"/><path d="M242.618,344.078c-0,-5.284 -4.291,-9.575 -9.575,-9.575l-88.968,0c-5.285,0 -9.575,4.291 -9.575,9.575c0,5.285 4.29,9.575 9.575,9.575l88.968,-0c5.284,-0 9.575,-4.29 9.575,-9.575Z" style="fill:#949494;fill-opacity:0.5;"/><path d="M242.618,369.789c-0,-5.285 -4.291,-9.575 -9.575,-9.575l-88.968,-0c-5.285,-0 -9.575,4.29 -9.575,9.575c0,5.284 4.29,9.574 9.575,9.574l88.968,0c5.284,0 9.575,-4.29 9.575,-9.574Z" style="fill:#949494;fill-opacity:0.5;"/><text x="146.301px" y="320.172px" style="font-family:'ArialMT', 'Arial', sans-serif;font-size:8.413px;">V<tspan x="151.448px 156.127px " y="320.172px 320.172px ">en</tspan>dor W<tspan x="182.933px 187.612px " y="320.172px 320.172px ">al</tspan>let <tspan x="200.24px 205.852px " y="320.172px 320.172px ">Ad</tspan>dress</text><text x="156.55px" y="346.204px" style="font-family:'ArialMT', 'Arial', sans-serif;font-size:8.413px;">Private V<tspan x="190.533px 192.402px " y="346.204px 346.204px ">ie</tspan>w Key</text><text x="155.934px" y="372.75px" style="font-family:'ArialMT', 'Arial', sans-serif;font-size:8.413px;">T<tspan x="160.761px 163.563px " y="372.75px 372.75px ">ra</tspan>nsaction Hash</text><path d="M507.233,314.478c0,-5.285 -4.29,-9.575 -9.574,-9.575l-88.969,0c-5.284,0 -9.574,4.29 -9.574,9.575c-0,5.284 4.29,9.575 9.574,9.575l88.969,-0c5.284,-0 9.574,-4.291 9.574,-9.575Z" style="fill:#949494;fill-opacity:0.5;"/><path d="M507.233,341.346c0,-5.285 -4.29,-9.575 -9.574,-9.575l-88.969,-0c-5.284,-0 -9.574,4.29 -9.574,9.575c-0,5.284 4.29,9.574 9.574,9.574l88.969,0c5.284,0 9.574,-4.29 9.574,-9.574Z" style="fill:#949494;fill-opacity:0.5;"/><text x="299.963px" y="287.9px" style="font-family:'ArialMT', 'Arial', sans-serif;font-size:8.312px;">Run job every 2 mins</text><g transform="matrix(0.692652,0,0,0.692652,-37.8012,-82.174)"><text x="505.928px" y="679.055px" style="font-family:'ArialMT', 'Arial', sans-serif;font-size:12px;">Check all decrypted transactions</text><text x="528.279px" y="691.447px" style="font-family:'ArialMT', 'Arial', sans-serif;font-size:12px;">for matching Payment ID</text></g><text x="410.916px" y="317.44px" style="font-family:'ArialMT', 'Arial', sans-serif;font-size:8.413px;">V<tspan x="416.064px 420.743px " y="317.44px 317.44px ">en</tspan>dor W<tspan x="447.548px 452.228px " y="317.44px 317.44px ">al</tspan>let <tspan x="464.856px 470.468px " y="317.44px 317.44px ">Ad</tspan>dress</text><text x="421.166px" y="343.472px" style="font-family:'ArialMT', 'Arial', sans-serif;font-size:8.413px;">Private V<tspan x="455.149px 457.018px " y="343.472px 343.472px ">ie</tspan>w Key</text><path d="M362.878,476.921c0,-6.954 -5.645,-12.599 -12.599,-12.599l-188.558,-0c-6.954,-0 -12.599,5.645 -12.599,12.599c-0,6.954 5.645,12.6 12.599,12.6l188.558,0c6.954,0 12.599,-5.646 12.599,-12.6Z" style="fill:#2e9900;fill-opacity:0.5;"/><text x="171.652px" y="479.787px" style="font-family:'ArialMT', 'Arial', sans-serif;font-size:11.072px;">V<tspan x="178.426px 184.583px " y="479.787px 479.787px ">er</tspan>ify payment ID and mark as paid</text><text x="31.108px" y="252.923px" style="font-family:'ArialMT', 'Arial', sans-serif;font-size:11.072px;">Method 1: On demand using explorer</text><text x="273.5px" y="253.968px" style="font-family:'ArialMT', 'Arial', sans-serif;font-size:11.072px;">Method 2: <tspan x="325.204px 332.588px " y="253.968px 253.968px ">Au</tspan>tomated recurring explorer check</text><path d="M68.681,316.348l-3.75,7.5l-3.75,-7.5c1.875,1.875 5.625,1.875 7.5,-0Z" style="fill:#06f;"/><path d="M64.931,300.354l-0,17.494" style="fill:none;stroke:#06f;stroke-width:2.5px;"/><path d="M333.297,313.615l-3.75,7.5l-3.75,-7.5c1.875,1.875 5.625,1.875 7.5,-0Z" style="fill:#06f;"/><path d="M329.547,297.622l-0,17.493" style="fill:none;stroke:#06f;stroke-width:2.5px;"/><path d="M332.468,369.283l-3.75,7.5l-3.75,-7.5c1.875,1.875 5.625,1.875 7.5,0Z" style="fill:#06f;"/><path d="M328.718,353.29l0,17.493" style="fill:none;stroke:#06f;stroke-width:2.5px;"/><path d="M171.891,452.658l3.259,7.726l-8.136,-2.028c2.643,-0.205 5.082,-3.054 4.877,-5.698Z" style="fill:#06f;"/><path d="M106.389,401.53c-0,-0 48.853,41.814 64.203,54.952" style="fill:none;stroke:#06f;stroke-width:2.5px;"/><path d="M351.21,455.212l-8.045,2.365l2.935,-7.855c-0.095,2.65 2.46,5.395 5.11,5.49Z" style="fill:#06f;"/><path d="M383.605,419.933c0,0 -25.575,23.807 -36.048,33.556" style="fill:none;stroke:#06f;stroke-width:2.5px;"/><text x="104.179px" y="15.207px" style="font-family:'ArialMT', 'Arial', sans-serif;font-size:12px;">Request Payment</text><text x="342.22px" y="169.014px" style="font-family:'ArialMT', 'Arial', sans-serif;font-size:12px;">User Sends Payment</text><text x="192.875px" y="234.646px" style="font-family:'ArialMT', 'Arial', sans-serif;font-size:12px;">Check For Payment</text></svg>